<svg width="60" height="60" viewBox="0 0 60 60" fill="none" xmlns="http://www.w3.org/2000/svg">
<rect x="0.5" y="0.5" width="59" height="59" rx="29.5" fill="#F1F1F1" stroke="#3069F6"/>
<mask id="mask0_1059_1632" style="mask-type:alpha" maskUnits="userSpaceOnUse" x="0" y="0" width="60" height="60">
<rect width="60" height="60" rx="30" fill="#D9D9D9"/>
</mask>
<g mask="url(#mask0_1059_1632)">
<path d="M30.1399 46.658C37.6025 46.6388 43.9477 50.0653 46.2799 57.441C41.5788 60.3067 36.0453 61.4106 30.1399 61.3962C24.2346 61.4106 18.7011 60.3067 14 57.441C16.335 50.0573 22.6694 46.6388 30.1399 46.658Z" fill="#ADADAD"/>
<path d="M40.2689 29.1285C40.2689 34.7224 35.7341 39.257 30.1402 39.257C24.5464 39.257 20.0117 34.7224 20.0117 29.1285C20.0117 23.5347 24.5464 19 30.1402 19C35.7341 19 40.2689 23.5347 40.2689 29.1285Z" fill="#ADADAD"/>
<rect x="0.5" y="0.5" width="59" height="59" rx="29.5" stroke="#3069F6"/>
</g>
</svg>
