<svg width="70" height="37" viewBox="0 0 70 37" fill="none" xmlns="http://www.w3.org/2000/svg">
<path fill-rule="evenodd" clip-rule="evenodd" d="M56.5361 5.72725C59.0596 5.72725 61.336 7.25201 62.2986 9.59631C63.2645 11.9374 62.7278 14.631 60.9393 16.4203C59.154 18.2095 56.4679 18.7417 54.1395 17.7655C51.8111 16.7925 50.2957 14.5038 50.3022 11.97C50.3022 10.3114 50.9591 8.71809 52.1265 7.54589C53.2972 6.37378 54.8841 5.71421 56.5361 5.71747V5.72725ZM32.5112 44C29.9291 44 21.0743 43.3568 16.6937 41.1006C14.3784 39.9056 14.2548 39.2787 14.2548 36.9866C14.2548 30.45 17.7279 24.4096 23.3664 21.1414C29.005 17.8732 35.9513 17.8731 41.5906 21.1414C47.2299 24.4098 50.7023 30.4503 50.7023 36.9866C50.7023 39.2754 50.5787 39.9023 48.2633 41.1006C43.9187 43.3567 35.0608 44 32.4459 44H32.5112ZM32.5112 0C35.9159 0 38.9857 2.0602 40.2865 5.21754C41.5905 8.3748 40.8686 12.0088 38.4622 14.4253C36.0558 16.8446 32.4363 17.5662 29.2914 16.257C26.1436 14.9509 24.0948 11.8687 24.0948 8.45028C24.0948 6.21045 24.9826 4.06207 26.5597 2.47529C28.1369 0.891768 30.2804 0 32.5112 0ZM8.48618 38.1223C9.91049 38.1125 11.3316 38.0341 12.7495 37.8807C12.5056 32.5326 14.4274 27.3147 18.0761 23.413C15.5591 20.8401 12.1251 19.3839 8.53488 19.3676C4.9415 19.3513 1.49447 20.7716 -1.04881 23.3183C-3.58858 25.8683 -5.0129 29.326 -4.99991 32.9306C-4.99991 34.6023 -4.90885 35.0855 -3.19182 35.9736C0.0211163 37.6453 6.58001 38.2069 8.46312 38.122L8.48618 38.1223ZM56.537 38.1223C58.4426 38.2072 65.0051 37.6456 68.1919 35.9739C69.9057 35.0891 70 34.6287 70 32.9309C69.9967 29.3361 68.5691 25.8915 66.0294 23.3546C63.4929 20.8209 60.0524 19.4038 56.4724 19.417C52.892 19.4333 49.4644 20.8797 46.9478 23.4362C50.59 27.3347 52.5119 32.5428 52.2744 37.8806C53.6922 38.0242 55.1134 38.0961 56.5377 38.0993L56.537 38.1223ZM8.48618 5.72641C11.0096 5.72315 13.286 7.24791 14.2551 9.58896C15.221 11.93 14.6876 14.6236 12.8991 16.4162C11.1138 18.2054 8.42765 18.7409 6.09925 17.7647C3.76759 16.7916 2.2522 14.5029 2.2587 11.9692C2.26845 8.52133 5.05214 5.72975 8.48618 5.72641Z" fill="url(#paint0_linear_1414_2925)"/>
<defs>
<linearGradient id="paint0_linear_1414_2925" x1="32.5" y1="0" x2="32.5" y2="44" gradientUnits="userSpaceOnUse">
<stop stop-color="#77CAFF"/>
<stop offset="1" stop-color="#2E9DE2"/>
</linearGradient>
</defs>
</svg>
