<svg width="73" height="75" viewBox="0 0 73 75" fill="none" xmlns="http://www.w3.org/2000/svg">
<path d="M1.02382 46.4189L1.14372 63.7126H2.77437L2.65447 46.4189H1.02382ZM33.2171 63.5934C35.7829 65.0961 38.8164 66.7301 42.4374 68.3521C44.6556 68.3521 47.1015 68.4714 49.3197 68.698C49.7873 68.698 50.0151 68.4714 50.0151 68.1136C50.0151 66.253 47.2094 65.2154 45.8186 64.9769C41.6221 64.1778 37.4136 64.5237 33.2171 63.5934ZM26.8024 58.5961C30.3035 61.9594 37.4136 61.9594 41.9698 62.4245C42.1976 62.3053 42.1976 62.3053 42.3175 62.0787C42.7851 60.2181 40.3391 59.6456 39.284 59.6456C35.1954 59.1805 30.879 59.6456 26.8024 58.5961ZM4.75272 61.9713C8.72143 62.0906 12.6901 62.9016 15.9514 64.9888C23.5291 69.7476 30.9989 72.1806 37.8812 74.3871C42.1976 75.7825 46.3941 77.0587 50.135 78.9073C51.1901 79.3724 51.6458 77.977 51.6458 77.166C51.5258 75.8898 50.5906 74.3751 48.1447 73.2182C41.3823 70.2008 35.8908 67.6485 31.8142 65.0961C27.3779 62.3053 18.9849 55.352 20.7354 49.4363C22.486 43.6399 33.6847 46.2996 34.8477 40.0381C34.8477 38.9885 34.7278 38.416 33.4449 38.7619C27.9654 40.5032 21.8985 39.9188 16.5269 42.1252C12.4383 43.8665 9.52476 47.3491 4.74074 48.9712V61.9713H4.75272ZM67.9762 45.4886L67.8563 28.1948H66.3455L66.4654 45.4886H67.9762ZM35.9028 28.3141C33.337 26.8113 30.1836 25.1773 26.6825 23.5553C24.4643 23.5553 22.0184 23.436 19.8002 23.2094C19.3326 23.2094 19.1048 23.436 19.1048 23.7938C19.1048 25.6544 21.9105 26.692 23.3013 26.9306C27.4978 27.7297 31.6943 27.3838 35.9028 28.3141ZM42.1976 33.2994C38.8164 29.9361 31.5864 29.9361 27.1501 29.471C26.9223 29.5902 26.8024 29.5902 26.8024 29.8168C26.3348 31.6774 28.7808 32.2499 29.8359 32.2499C33.9125 32.727 38.2289 32.2618 42.1976 33.2994ZM69.9665 28.1948L70.0864 45.4886H73V28.1948H69.9665ZM56.8974 11.6047L51.8856 16.8286C51.5378 17.1745 50.9503 17.2938 50.4827 16.8286L48.1447 14.6222C46.8617 13.5726 45.5788 15.2066 46.514 16.2442L50.4827 19.9534C50.9503 20.2993 51.6457 20.2993 52.1134 19.8342L58.528 13.1075C58.7558 12.8809 58.8757 12.5231 58.7558 12.2965C58.7558 11.7121 58.2882 11.1396 57.7007 11.2469C57.365 11.2588 57.1372 11.3781 56.8974 11.6047ZM53.0486 32.6077C52.7009 32.8343 52.3532 32.8343 51.9935 32.727C44.7635 28.7792 41.2624 25.1893 39.6317 20.4305C36.7182 19.381 33.9125 18.4626 31.2267 17.5323C26.7904 16.1369 22.7138 14.8607 18.9729 13.0121C17.8099 12.5469 17.4622 13.9424 17.4622 14.7534C17.5821 16.0295 18.5173 17.5442 20.9633 18.7011C27.7256 21.7186 33.2171 24.2709 37.2937 26.8232C41.73 29.6141 50.123 36.46 48.3725 42.483C46.6219 48.2794 35.4232 45.6198 34.2602 51.8813C34.1403 52.9309 34.3801 53.5033 35.663 53.1575C41.0346 51.4162 47.2094 52.0006 52.4611 49.6749C56.6576 48.0528 59.5712 44.5702 64.3552 42.9482L64.2353 29.948C62.3648 29.948 60.3865 29.7214 58.516 29.2563C57.0173 30.4013 55.1468 31.4508 53.0486 32.6077ZM52.4611 30.6398C64.595 24.1397 64.9427 18.6892 64.4751 5.56979C60.0388 4.17436 55.9622 2.8982 52.4611 0C49.0799 2.8982 44.9913 4.17436 40.567 5.56979C40.0993 18.5699 40.3272 24.1397 52.4611 30.6398ZM51.1781 14.7414L55.4945 10.2212C56.0821 9.6368 56.8974 9.29093 57.5928 9.29093C59.3434 9.17166 60.7462 10.5671 60.7462 12.1891C60.8661 13.0001 60.5184 13.8112 59.9309 14.3956L53.5162 21.2415C52.3532 22.3984 50.3628 22.5177 49.1998 21.3608L45.2311 17.6516C43.7203 16.2561 44.176 14.2882 45.2311 13.2387C46.2862 12.1891 48.2646 11.9625 49.4276 13.2387L51.1781 14.7414ZM-0.846621 63.7126L-0.966521 46.4189H-4L-3.8801 63.7126H-0.846621Z" fill="url(#paint0_linear_100_1934)"/>
<defs>
<linearGradient id="paint0_linear_100_1934" x1="34.5" y1="0" x2="34.5" y2="79" gradientUnits="userSpaceOnUse">
<stop stop-color="#A5EB8A"/>
<stop offset="1" stop-color="#7DAD71"/>
</linearGradient>
</defs>
</svg>
