<svg width="122" height="122" viewBox="0 0 122 122" fill="none" xmlns="http://www.w3.org/2000/svg">
<path d="M58.9626 97.597C57.244 97.9042 55.5019 98.0607 53.7561 98.0648C44.3088 98.0648 40.1737 92.979 39.1324 91.1982C36.1442 87.7573 23.0901 71.5641 22.9693 71.3377C21.098 68.8627 20.6754 66.2368 21.8073 64.139C22.3791 63.1625 23.2191 62.3704 24.2276 61.8568C25.236 61.3432 26.3706 61.1297 27.4968 61.2415C29.7303 61.3622 31.647 63.0072 33.9861 65.1502L28.9908 36.0235C28.8589 35.2701 28.8774 34.498 29.0453 33.7517C29.2132 33.0055 29.5272 32.2999 29.9691 31.6756C30.411 31.0512 30.9722 30.5206 31.6202 30.1142C32.2682 29.7078 32.9902 29.4337 33.7447 29.3078H34.1371C35.1012 29.1317 36.0947 29.2097 37.0195 29.5341L36.6272 27.21C36.4941 26.4567 36.5124 25.6845 36.6808 24.9383C36.8492 24.1921 37.1644 23.4868 37.6081 22.8637C38.0443 22.2271 38.6023 21.6833 39.2499 21.2637C39.8975 20.8441 40.6218 20.5569 41.381 20.4189H41.7734C43.1888 20.1782 44.6433 20.4687 45.8576 21.2346C47.072 22.0006 47.9607 23.188 48.3533 24.569C49.0612 24.0585 49.8771 23.7177 50.7378 23.573L51.1301 23.4975C52.6508 23.2394 54.2119 23.5948 55.4708 24.486C56.7298 25.3772 57.5839 26.7313 57.8459 28.2514L58.1175 29.8511C58.7733 29.4311 59.5075 29.1487 60.2756 29.021L60.668 28.9456C62.1876 28.6956 63.7445 29.0544 65.0015 29.9441C66.2585 30.8339 67.1144 32.1831 67.3837 33.6994L70.5228 51.9451C70.5719 52.0832 70.6123 52.2244 70.6435 52.3676L74.9144 77.2989C74.9446 77.4649 77.6007 94.3976 58.9626 97.597ZM63.2637 8.5569V2.26373C63.2637 1.66335 63.0252 1.08756 62.6007 0.663031C62.1762 0.238499 61.6004 0 61 0C60.3996 0 59.8238 0.238499 59.3993 0.663031C58.9748 1.08756 58.7363 1.66335 58.7363 2.26373V8.51163C58.7363 9.11201 58.9748 9.6878 59.3993 10.1123C59.8238 10.5369 60.3996 10.7754 61 10.7754C61.6004 10.7754 62.1762 10.5369 62.6007 10.1123C63.0252 9.6878 63.2637 9.11201 63.2637 8.51163V8.5569ZM63.2637 119.782V113.488C63.2637 112.888 63.0252 112.312 62.6007 111.888C62.1762 111.463 61.6004 111.225 61 111.225C60.3996 111.225 59.8238 111.463 59.3993 111.888C58.9748 112.312 58.7363 112.888 58.7363 113.488V119.736C58.7363 120.337 58.9748 120.912 59.3993 121.337C59.8238 121.762 60.3996 122 61 122C61.6004 122 62.1762 121.762 62.6007 121.337C63.0252 120.912 63.2637 120.337 63.2637 119.736V119.782ZM122 61C122 60.3996 121.762 59.8238 121.337 59.3993C120.912 58.9748 120.337 58.7363 119.736 58.7363H113.488C112.888 58.7363 112.312 58.9748 111.888 59.3993C111.463 59.8238 111.225 60.3996 111.225 61C111.225 61.6004 111.463 62.1762 111.888 62.6007C112.312 63.0252 112.888 63.2637 113.488 63.2637H119.736C120.337 63.2637 120.912 63.0252 121.337 62.6007C121.762 62.1762 122 61.6004 122 61ZM10.7754 61C10.7754 60.3996 10.5369 59.8238 10.1123 59.3993C9.6878 58.9748 9.11201 58.7363 8.51163 58.7363H2.26373C1.66335 58.7363 1.08756 58.9748 0.663031 59.3993C0.238499 59.8238 0 60.3996 0 61C0 61.6004 0.238499 62.1762 0.663031 62.6007C1.08756 63.0252 1.66335 63.2637 2.26373 63.2637H8.51163C9.11201 63.2637 9.6878 63.0252 10.1123 62.6007C10.5369 62.1762 10.7754 61.6004 10.7754 61ZM99.7249 25.4896L104.132 21.0678C104.531 20.6387 104.749 20.0711 104.739 19.4846C104.728 18.8982 104.491 18.3386 104.076 17.9239C103.661 17.5091 103.102 17.2715 102.515 17.2612C101.929 17.2508 101.361 17.4685 100.932 17.8684L96.5104 22.2751C96.1331 22.7106 95.9348 23.2729 95.9555 23.8487C95.9761 24.4245 96.214 24.9711 96.6215 25.3786C97.0289 25.786 97.5755 26.0239 98.1513 26.0445C98.7271 26.0652 99.2894 25.8669 99.7249 25.4896ZM21.0678 104.132L25.4896 99.7249C25.7262 99.52 25.918 99.2685 26.0531 98.9862C26.1882 98.7039 26.2637 98.3967 26.2749 98.084C26.2861 97.7712 26.2327 97.4594 26.1182 97.1682C26.0036 96.8769 25.8302 96.6124 25.6089 96.3911C25.3876 96.1698 25.1231 95.9964 24.8318 95.8818C24.5406 95.7673 24.2288 95.7139 23.916 95.7251C23.6033 95.7363 23.2961 95.8118 23.0138 95.9469C22.7315 96.082 22.48 96.2738 22.2751 96.5104L17.8684 100.932C17.6567 101.141 17.4886 101.39 17.3738 101.665C17.2591 101.94 17.2 102.234 17.2 102.532C17.2 102.83 17.2591 103.124 17.3738 103.399C17.4886 103.673 17.6567 103.922 17.8684 104.132C18.0758 104.345 18.3247 104.514 18.5997 104.629C18.8748 104.743 19.1703 104.8 19.4681 104.796C19.7655 104.797 20.0602 104.739 20.3349 104.625C20.6096 104.511 20.8588 104.343 21.0678 104.132ZM104.071 103.03C104.283 102.821 104.451 102.572 104.566 102.297C104.681 102.022 104.74 101.728 104.74 101.43C104.74 101.133 104.681 100.838 104.566 100.563C104.451 100.289 104.283 100.04 104.071 99.8305L99.7249 95.4087C99.3006 94.9824 98.7244 94.7422 98.123 94.7408C97.5216 94.7393 96.9442 94.9769 96.5179 95.4012C96.0917 95.8254 95.8514 96.4017 95.85 97.0031C95.8486 97.6045 96.0861 98.1818 96.5104 98.6081L100.932 103.03C101.359 103.45 101.933 103.689 102.532 103.694C102.829 103.695 103.124 103.636 103.398 103.522C103.673 103.408 103.922 103.241 104.132 103.03H104.071ZM25.4896 24.3728C25.9099 23.9465 26.1455 23.3718 26.1455 22.7731C26.1455 22.1744 25.9099 21.5998 25.4896 21.1734L21.0678 16.7516C20.6414 16.3313 20.0668 16.0957 19.4681 16.0957C18.8694 16.0957 18.2948 16.3313 17.8684 16.7516C17.6567 16.9608 17.4886 17.2099 17.3738 17.4845C17.2591 17.7591 17.2 18.0537 17.2 18.3513C17.2 18.6489 17.2591 18.9436 17.3738 19.2182C17.4886 19.4928 17.6567 19.7419 17.8684 19.951L22.2751 24.3728C22.7021 24.7977 23.28 25.0362 23.8824 25.0362C24.4847 25.0362 25.0626 24.7977 25.4896 24.3728ZM100.072 66.2217C99.449 65.2672 98.5635 64.513 97.522 64.0498C96.4805 63.5867 95.3274 63.4342 94.2014 63.6108C91.9829 63.8372 90.1418 65.5727 87.9233 67.8365L91.4698 38.4985C91.6488 36.9665 91.2145 35.4258 90.2617 34.2129C89.3088 32.9999 87.9148 32.2131 86.384 32.0242H85.9916C85.0143 31.9031 84.0223 32.0329 83.1091 32.4015L83.3959 30.0473C83.5792 28.5168 83.1484 26.9761 82.198 25.7626C81.2475 24.5491 79.8549 23.7617 78.3251 23.573H77.9327C76.3981 23.3903 74.8532 23.8185 73.6316 24.7652C72.6 25.5603 71.8706 26.6836 71.5641 27.9495C70.8247 27.4789 69.9893 27.1798 69.1193 27.0742H68.7269H68.6212C70.3073 28.6113 71.433 30.6663 71.8206 32.9146L74.8389 50.9038C74.9136 51.1568 74.974 51.4137 75.02 51.6734L79.2909 76.5745C79.7888 80.3814 79.3909 84.252 78.1289 87.878C76.4085 92.6771 72.4092 98.6383 63.1581 101.294C63.6108 101.294 64.0485 101.476 64.5163 101.536C65.8538 101.69 67.1995 101.761 68.5458 101.747C78.974 101.747 83.0789 96.0426 84.1504 94.2014C87.0178 90.5492 99.242 73.7373 99.3325 73.5562C100.993 70.9 101.294 68.259 100.072 66.2217Z" fill="#DEDEDE"/>
</svg>
