<svg width="16" height="15" viewBox="0 0 16 16" xmlns="http://www.w3.org/2000/svg">
<path d="M7.21643 14.5956H7.11333C7.08662 14.5844 7.05882 14.5823 7.03041 14.5856C6.99503 14.5788 6.95945 14.5731 6.92438 14.5649C6.70262 14.5136 6.51939 14.3993 6.37329 14.2255C6.29423 14.1314 6.23312 14.0266 6.19139 13.9108C6.18794 13.9012 6.18454 13.8914 6.18093 13.8818C6.1784 13.8752 6.17035 13.8713 6.16458 13.874C6.15364 13.8789 6.14271 13.8838 6.13198 13.8892C6.03977 13.9349 5.94767 13.9808 5.85546 14.0266C5.7388 14.0844 5.61508 14.1186 5.48574 14.13C5.37218 14.14 5.25976 14.1308 5.14826 14.1041C4.85183 14.033 4.59918 13.8319 4.46128 13.5575C4.39073 13.4172 4.35638 13.268 4.35221 13.1115C4.35179 13.0961 4.35128 13.0807 4.35009 13.0654C4.34994 13.0636 4.34514 13.0603 4.34287 13.0607C4.33627 13.0616 4.32957 13.0632 4.32343 13.066C4.27005 13.0895 4.21688 13.1135 4.16346 13.1368C4.05887 13.1826 3.94959 13.212 3.83624 13.2232C3.72814 13.2338 3.62031 13.2287 3.51319 13.2073C3.29989 13.1648 3.11651 13.0671 2.96262 12.9141C2.85519 12.8073 2.77614 12.6817 2.72059 12.5411C2.67284 12.4202 2.64762 12.2948 2.64808 12.1645C2.64819 12.1405 2.64886 12.1165 2.64906 12.0925C2.64922 12.0771 2.64556 12.0743 2.63143 12.0763C2.59239 12.0819 2.5534 12.0895 2.5141 12.0919C2.44035 12.0964 2.36666 12.0952 2.29302 12.0848C2.21107 12.0733 2.13108 12.0548 2.05378 12.0255C1.64966 11.8727 1.39774 11.5098 1.36313 11.1048C1.35256 10.9808 1.36442 10.8581 1.39763 10.7377C1.45937 10.5142 1.57927 10.3285 1.75894 10.1815C1.76554 10.1761 1.77163 10.17 1.77802 10.1644C1.78096 10.1617 1.78153 10.1588 1.77942 10.1552C1.77235 10.1434 1.7656 10.1316 1.75812 10.1201C1.62836 9.91996 1.50289 9.71716 1.38046 9.51251C1.14091 9.11206 0.913792 8.70456 0.689663 8.29536C0.480438 7.91331 0.275288 7.52899 0.0630201 7.14858C0.0402256 7.10779 0.0215052 7.06586 0.0170185 7.01867C0.0165544 7.01378 0.0143884 7.00853 0.0114488 7.00451C0.00861241 7.00059 0.00391942 6.99807 0 6.99493C0 6.98808 0 6.98118 0 6.97432C0.00938598 6.9718 0.0140274 6.96459 0.0160387 6.95609C0.0199065 6.93945 0.0221757 6.9224 0.0264045 6.90582C0.0353779 6.87043 0.0541499 6.83968 0.0735923 6.80923C0.362701 6.35687 0.651655 5.90445 0.940661 5.45203C1.59624 4.42584 2.25186 3.39965 2.90749 2.37345C2.91486 2.36191 2.92193 2.35007 2.92977 2.33884C2.9685 2.28367 3.01966 2.24529 3.08402 2.22453C3.11697 2.21387 3.15106 2.21021 3.1852 2.20697C3.20572 2.20501 3.2263 2.20378 3.24678 2.20177C3.29804 2.19672 3.34925 2.19116 3.40051 2.18621C3.45177 2.18132 3.50314 2.17704 3.5544 2.1723C3.59199 2.1688 3.62959 2.16499 3.66718 2.16133C3.73041 2.1552 3.79359 2.14887 3.85686 2.1431C3.90642 2.13856 3.95609 2.13449 4.0057 2.13058C4.07589 2.12502 4.14602 2.11894 4.21626 2.11461C4.30708 2.10905 4.398 2.10472 4.48892 2.10039C4.60212 2.09499 4.71532 2.0885 4.82862 2.0853C5.002 2.08036 5.17549 2.07706 5.34892 2.07448C5.59972 2.07072 5.85046 2.07551 6.10109 2.08267C6.21439 2.08592 6.32765 2.09071 6.4409 2.0955C6.49922 2.09797 6.55755 2.10112 6.61577 2.10544C6.72536 2.11363 6.8349 2.12239 6.94434 2.13187C7.02814 2.13913 7.11184 2.14768 7.19549 2.15618C7.22963 2.15963 7.26372 2.16396 7.2977 2.16865C7.35892 2.17709 7.42013 2.18544 7.48114 2.19507C7.55401 2.20656 7.62678 2.21882 7.69939 2.23169C7.74668 2.24009 7.79371 2.24988 7.8407 2.25987C7.85302 2.2625 7.86437 2.26188 7.87602 2.25827C7.88257 2.25627 7.88922 2.25457 7.89583 2.25261C8.20355 2.15881 8.51767 2.09622 8.83726 2.06006C8.8748 2.05584 8.9123 2.0513 8.94984 2.0476C9.00791 2.04188 9.06598 2.03575 9.1242 2.03163C9.20471 2.02596 9.28531 2.0221 9.36592 2.01731C9.40532 2.01494 9.44472 2.01221 9.48412 2.00963C9.51847 2.01406 9.55276 2.01015 9.58711 2.00891C9.62816 2.0137 9.66921 2.00881 9.71021 2.00876C9.7577 2.01303 9.80515 2.00937 9.85254 2.00675C9.85708 2.00649 9.86147 2.00232 9.8659 2C9.95182 2 10.0377 2 10.1237 2C10.1285 2.0051 10.1342 2.00896 10.1413 2.00901C10.1839 2.00912 10.2265 2.00896 10.2692 2.00886C10.3967 2.00932 10.5243 2.00989 10.6518 2.0102C10.6585 2.0102 10.6652 2.0086 10.6719 2.00773C10.7023 2.00876 10.7326 2.01411 10.7631 2.00999C10.8534 2.02163 10.9446 2.022 11.0353 2.02921C11.1174 2.03575 11.1998 2.03884 11.2821 2.04353C11.289 2.04394 11.2958 2.04451 11.3027 2.04497C11.3815 2.05022 11.4602 2.05573 11.5391 2.06058C11.6213 2.06562 11.7036 2.06995 11.7859 2.07464C11.7911 2.07495 11.7962 2.07541 11.8013 2.07572C11.8801 2.08097 11.9589 2.08654 12.0377 2.09138C12.12 2.09643 12.2023 2.10075 12.2845 2.10539C12.2897 2.1057 12.2948 2.10611 12.3 2.10642C12.3942 2.11234 12.4885 2.11827 12.5827 2.12424C12.6067 2.12579 12.6306 2.12764 12.6546 2.12909C12.7334 2.13377 12.8123 2.13831 12.8911 2.14299C12.9014 2.14361 12.9121 2.1431 12.9217 2.14593C12.9865 2.16468 13.0407 2.19837 13.0765 2.2575C13.0862 2.27362 13.0965 2.28949 13.1066 2.30535C13.9984 3.70124 14.8902 5.09712 15.782 6.49301C15.8152 6.54504 15.8485 6.59701 15.8816 6.64914C15.8881 6.65934 15.8945 6.66918 15.9066 6.67402C15.911 6.67577 15.9154 6.67958 15.9178 6.6836C15.9366 6.7143 15.9553 6.7451 15.9732 6.77632C15.9826 6.7927 15.9899 6.81016 15.991 6.82948C15.9888 6.84153 15.9867 6.85353 16 6.86116V6.96413C15.9893 6.97633 15.987 6.9904 15.9907 7.0058C15.9892 7.03073 15.9765 7.05133 15.965 7.07235C15.8423 7.29647 15.7197 7.52059 15.597 7.74472C15.4357 8.03956 15.2753 8.33492 15.1128 8.62905C14.9312 8.95784 14.7434 9.28303 14.5474 9.60358C14.4374 9.78361 14.3247 9.96199 14.2083 10.138C14.2007 10.1494 14.1934 10.161 14.1866 10.173C14.1855 10.1751 14.1869 10.1807 14.1889 10.1823C14.2036 10.1941 14.2188 10.2051 14.2337 10.2167C14.4968 10.4204 14.6415 10.6886 14.6677 11.0197C14.6776 11.1457 14.662 11.27 14.6239 11.3906C14.5312 11.6834 14.3467 11.9001 14.0739 12.0402C13.9219 12.1183 13.7592 12.1563 13.5878 12.1558C13.5206 12.1556 13.4542 12.1494 13.3881 12.137C13.3238 12.125 13.2613 12.1071 13.2003 12.0837C13.1909 12.0801 13.1811 12.0771 13.1714 12.0743C13.1673 12.0731 13.1641 12.0752 13.1639 12.0791C13.1633 12.0892 13.1625 12.0994 13.163 12.1096C13.1668 12.1975 13.1593 12.2847 13.1412 12.3705C13.0949 12.5899 12.9901 12.7775 12.8276 12.9323C12.7128 13.0417 12.58 13.122 12.4291 13.171C12.3539 13.1954 12.2766 13.2106 12.1978 13.2196C12.1031 13.2303 12.009 13.2265 11.9154 13.2121C11.8165 13.197 11.7219 13.1673 11.6308 13.1254C11.5342 13.081 11.4367 13.0386 11.3396 12.9954C11.3319 12.992 11.3235 12.9901 11.3154 12.9876C11.3112 12.9863 11.3082 12.9879 11.3076 12.9921C11.3063 13.0005 11.3049 13.0089 11.3047 13.0173C11.3022 13.1051 11.2921 13.1919 11.2676 13.2764C11.1841 13.5643 11.012 13.7816 10.7465 13.9227C10.6303 13.9845 10.5062 14.0244 10.3748 14.0367C10.2562 14.0478 10.138 14.0428 10.0214 14.0155C9.95115 13.999 9.8822 13.9769 9.81758 13.9454C9.67261 13.8748 9.52765 13.8042 9.38686 13.7254C9.37938 13.7212 9.3719 13.717 9.36422 13.7131C9.36122 13.7116 9.35777 13.711 9.35452 13.71C9.35076 13.7087 9.34333 13.713 9.34307 13.717C9.33946 13.7719 9.33209 13.8264 9.31625 13.879C9.26886 14.0363 9.18831 14.1742 9.07016 14.2893C8.94664 14.4097 8.79853 14.479 8.62814 14.5018C8.52355 14.5158 8.41891 14.511 8.31458 14.4997C8.22753 14.4902 8.14141 14.4744 8.05513 14.4595C8.02305 14.4539 7.99149 14.4461 7.96065 14.435C7.91233 14.4174 7.86328 14.4017 7.81476 14.3847C7.80748 14.3822 7.80114 14.3826 7.79526 14.3863C7.78067 14.3953 7.76649 14.405 7.75205 14.4143C7.73188 14.4273 7.71213 14.4411 7.69129 14.453C7.57237 14.5208 7.44566 14.5666 7.30956 14.5852C7.2778 14.5816 7.2469 14.5852 7.21673 14.5957L7.21643 14.5956ZM5.40993 2.66948C5.2381 2.6682 5.06637 2.67422 4.89463 2.67927C4.76756 2.68298 4.64054 2.68813 4.51347 2.69266C4.50831 2.69287 4.50316 2.69323 4.49805 2.69354C4.41234 2.69869 4.32658 2.70379 4.24086 2.70904C4.16712 2.71358 4.09342 2.71831 4.01973 2.72295C4.01287 2.72336 4.00601 2.72403 3.9992 2.72465C3.94278 2.7299 3.88636 2.73516 3.82994 2.74052C3.79235 2.74407 3.75475 2.74783 3.71711 2.75133C3.66749 2.75597 3.61788 2.7603 3.56832 2.76509C3.5051 2.77116 3.44187 2.77755 3.37864 2.78389C3.31423 2.79038 3.32764 2.78585 3.29711 2.8321C3.2952 2.83499 3.29319 2.83777 3.29133 2.84065C2.76309 3.66575 2.23495 4.49085 1.70665 5.31589C1.35509 5.86494 1.00342 6.41394 0.65181 6.96299C0.644435 6.97453 0.637112 6.98617 0.630201 6.99797C0.62654 7.0042 0.62623 7.01121 0.629531 7.01764C0.637421 7.03289 0.645673 7.04788 0.653873 7.06292C0.766092 7.26933 0.87862 7.47563 0.99053 7.68218C1.19315 8.05615 1.39619 8.42986 1.60722 8.79919C1.78597 9.11201 1.97002 9.42164 2.16388 9.7254C2.27466 9.89899 2.38791 10.0709 2.50662 10.2392C2.57191 10.3317 2.63896 10.4231 2.70708 10.5136C2.84436 10.696 2.98366 10.8769 3.13708 11.0463C3.19701 11.1125 3.2558 11.1798 3.31361 11.2478C3.37818 11.3238 3.44759 11.3952 3.51716 11.4664C3.62165 11.5733 3.73201 11.674 3.84428 11.7727C3.96558 11.8793 4.09187 11.9798 4.21884 12.0795C4.27825 12.1262 4.33895 12.1711 4.40135 12.2138C4.53317 12.304 4.66989 12.3863 4.80877 12.465C4.87591 12.5031 4.94368 12.5401 5.01175 12.5765C5.17358 12.6632 5.33614 12.7485 5.49766 12.8358C5.632 12.9083 5.76763 12.9785 5.90466 13.0458C6.02786 13.1063 6.15174 13.1655 6.27845 13.2182C6.40036 13.269 6.52202 13.3204 6.64553 13.3671C6.69024 13.384 6.73346 13.4057 6.78147 13.413C6.78477 13.4136 6.78792 13.4153 6.79106 13.4166C6.87507 13.4512 6.95908 13.4859 7.04315 13.5204C7.2352 13.599 7.42771 13.6766 7.62322 13.7464C7.72657 13.7833 7.82971 13.821 7.93559 13.8503C8.00335 13.8691 8.07101 13.8887 8.14063 13.8998C8.21691 13.9119 8.29318 13.9244 8.36977 13.934C8.42087 13.9404 8.4726 13.9413 8.52412 13.9365C8.57203 13.932 8.6136 13.9135 8.64727 13.8788C8.6811 13.844 8.70807 13.8049 8.72473 13.7586C8.73649 13.726 8.74263 13.6926 8.74531 13.6583C8.75139 13.5802 8.73221 13.5087 8.69075 13.4428C8.66842 13.4072 8.63943 13.3804 8.6006 13.3615C8.43248 13.2796 8.26518 13.196 8.09799 13.1123C7.9983 13.0623 7.89871 13.0122 7.79928 12.9619C7.70135 12.9124 7.60321 12.8632 7.50528 12.8136C7.48996 12.8058 7.4748 12.7978 7.4601 12.7889C7.4175 12.7632 7.37568 12.7362 7.33272 12.7112C7.15036 12.6048 6.96775 12.499 6.78519 12.3931C6.69169 12.3388 6.59855 12.2839 6.50459 12.2305C6.40923 12.1762 6.31661 12.117 6.21806 12.0684C6.14828 12.0246 6.0751 11.9867 6.00398 11.9452C5.82163 11.8389 5.63968 11.7319 5.45738 11.6255C5.43335 11.6115 5.41169 11.5951 5.39369 11.574C5.38925 11.5687 5.38472 11.5636 5.38007 11.5585C5.37084 11.5484 5.35914 11.5397 5.35284 11.528C5.3466 11.5164 5.34666 11.5016 5.34232 11.4887C5.33067 11.4541 5.32582 11.4189 5.32855 11.3825C5.32892 11.3774 5.32881 11.3722 5.32855 11.3671C5.32685 11.3304 5.33773 11.2959 5.34619 11.2609C5.34779 11.2543 5.35109 11.248 5.3546 11.2422C5.36532 11.2247 5.3759 11.2069 5.38776 11.1902C5.39565 11.179 5.40462 11.1683 5.41488 11.1594C5.4532 11.1259 5.49838 11.1046 5.54758 11.0947C5.59678 11.0848 5.64644 11.0876 5.69554 11.1012C5.72426 11.1092 5.74932 11.1235 5.77454 11.1381C6.01089 11.2744 6.24725 11.4107 6.48339 11.5474C6.89178 11.7839 7.30007 12.0206 7.70842 12.257C7.72322 12.2656 7.73859 12.2734 7.754 12.2808C7.85292 12.3284 7.95127 12.3772 8.04853 12.4281C8.1443 12.4782 8.2397 12.5291 8.3364 12.5772C8.78785 12.802 9.23977 13.026 9.69149 13.2502C9.80056 13.3044 9.90984 13.3582 10.0187 13.413C10.0715 13.4396 10.1275 13.4557 10.186 13.4609C10.3074 13.4717 10.4175 13.4392 10.5145 13.3658C10.6016 13.2999 10.654 13.2113 10.6793 13.1059C10.6985 13.026 10.6994 12.9465 10.6731 12.8675C10.6666 12.848 10.6621 12.828 10.6525 12.8095C10.6277 12.7621 10.5972 12.7188 10.5597 12.6804C10.5404 12.6604 10.5185 12.645 10.4927 12.6338C10.4187 12.6018 10.3454 12.5684 10.2718 12.5354C10.2608 12.5305 10.2477 12.5272 10.2401 12.519C10.2241 12.5021 10.2034 12.4939 10.184 12.4832C10.0653 12.4178 9.9464 12.3527 9.82743 12.2878C9.65575 12.194 9.48412 12.1003 9.31445 12.0029C9.30852 11.9995 9.30243 11.9962 9.2965 11.9928C9.22214 11.9501 9.14829 11.9064 9.07325 11.8648C8.9141 11.7768 8.75438 11.6898 8.59482 11.6025C8.46842 11.5333 8.34238 11.4633 8.21531 11.3953C8.08674 11.3266 7.96173 11.2514 7.83131 11.186C7.77463 11.1575 7.72043 11.1244 7.66401 11.0953C7.59547 11.0598 7.52854 11.0214 7.4601 10.9857C7.3749 10.9412 7.2911 10.8942 7.20668 10.8483C7.14335 10.8139 7.08028 10.779 7.01669 10.7452C6.92237 10.6949 6.85316 10.5774 6.87884 10.4427C6.90679 10.2959 7.03562 10.2128 7.15619 10.2093C7.22272 10.2074 7.28558 10.2225 7.34412 10.2548C7.42818 10.3013 7.51265 10.3472 7.59661 10.3939C7.78562 10.4988 7.97458 10.6039 8.16333 10.7093C8.2577 10.762 8.3512 10.8163 8.44583 10.8686C8.63056 10.9706 8.81606 11.0713 9.00074 11.1734C9.21394 11.2913 9.42646 11.4105 9.63956 11.5286C9.90071 11.6734 10.1626 11.8167 10.4232 11.9624C10.5236 12.0185 10.6265 12.069 10.732 12.1151C11.0353 12.2477 11.3392 12.3789 11.6407 12.5157C11.7126 12.5483 11.7846 12.5805 11.8565 12.6132C11.9052 12.6354 11.956 12.6515 12.009 12.6577C12.1103 12.6698 12.2072 12.6545 12.2993 12.6088C12.4894 12.5143 12.5843 12.3203 12.5762 12.1445C12.5738 12.0928 12.5635 12.0424 12.5452 11.9939C12.4976 11.8676 12.4137 11.7729 12.2905 11.7174C11.8667 11.5266 11.442 11.3376 11.0174 11.1482C10.9907 11.1363 10.965 11.1228 10.9399 11.108C10.2616 10.7076 9.58314 10.3073 8.90482 9.90682C8.83535 9.86582 8.76656 9.82368 8.69745 9.78206C8.66934 9.76517 8.64346 9.74549 8.62076 9.72174C8.58172 9.6809 8.55687 9.63232 8.54686 9.57715C8.53098 9.48933 8.55166 9.40928 8.6088 9.34108C8.68698 9.24774 8.78806 9.21972 8.90544 9.24604C8.93762 9.25325 8.96639 9.26866 8.9946 9.28529C9.19872 9.40542 9.40305 9.52508 9.60696 9.64551C10.1389 9.95967 10.6707 10.2741 11.2026 10.5884C11.2218 10.5997 11.2416 10.6102 11.2618 10.6193C11.4404 10.6991 11.6185 10.7797 11.7978 10.8577C12.1627 11.0164 12.5283 11.1735 12.8936 11.3314C13.0542 11.4008 13.2149 11.47 13.3752 11.5402C13.4798 11.586 13.5875 11.5945 13.6975 11.5671C13.8094 11.5391 13.9015 11.479 13.9726 11.3878C13.9779 11.3811 13.9844 11.3742 13.9864 11.3664C13.995 11.3329 14.0125 11.3032 14.0255 11.2716C14.0659 11.1734 14.0759 11.0723 14.0514 10.9691C14.0164 10.8212 13.9305 10.7138 13.7898 10.6524C13.7756 10.6462 13.7614 10.6403 13.7473 10.6339C13.4265 10.49 13.1057 10.3459 12.7848 10.2021C12.6941 10.1614 12.6037 10.1196 12.5118 10.0817C12.4652 10.0625 12.4229 10.0375 12.3814 10.0099C11.9579 9.72926 11.5343 9.44858 11.1107 9.16811C11.0005 9.09517 10.8905 9.02182 10.779 8.95089C10.5343 8.79517 10.2897 8.6392 10.0494 8.47668C9.9513 8.41034 9.85497 8.34136 9.7574 8.27419C9.63007 8.18652 9.50614 8.09427 9.38541 7.99774C9.33307 7.95591 9.28196 7.91264 9.23384 7.86597C9.19919 7.83239 9.16922 7.7954 9.14344 7.75425C8.80353 7.21205 8.46306 6.67021 8.12279 6.12821C8.00423 5.93932 7.88587 5.75028 7.76741 5.56129C7.76014 5.54964 7.75277 5.53811 7.74503 5.52677C7.74101 5.52085 7.73539 5.51709 7.72765 5.51889C7.71594 5.52157 7.70419 5.5241 7.69263 5.52724C7.46742 5.58807 7.24226 5.64891 7.0171 5.71C6.92108 5.73601 6.82526 5.76285 6.72918 5.78855C6.71381 5.79267 6.70035 5.79875 6.68797 5.80849C6.67312 5.82018 6.65781 5.8312 6.64264 5.84248C6.50211 5.94705 6.35859 6.04724 6.21145 6.14227C5.94014 6.31751 5.65794 6.47354 5.36976 6.61895C5.23145 6.68875 5.08369 6.72486 4.9298 6.73573C4.78994 6.74557 4.65189 6.73176 4.51641 6.69524C4.38253 6.65913 4.2586 6.60175 4.14685 6.51918C4.01833 6.42419 3.92128 6.30484 3.86083 6.15587C3.80266 6.01257 3.77069 5.86463 3.77378 5.70969C3.77621 5.58694 3.79962 5.46785 3.83985 5.352C3.88518 5.22152 3.94964 5.10088 4.0271 4.98689C4.10549 4.87151 4.19553 4.76576 4.29331 4.66644C4.40667 4.55137 4.52616 4.44289 4.649 4.33801C4.83192 4.18188 5.02134 4.03395 5.21463 3.89085C5.45202 3.7151 5.69332 3.54496 5.94194 3.38548C6.26844 3.17604 6.59613 2.96845 6.92329 2.76004C6.9334 2.7536 6.94346 2.7469 6.95331 2.7401C6.95434 2.73938 6.95506 2.73645 6.95444 2.73542C6.95305 2.733 6.95099 2.7296 6.94872 2.72918C6.93526 2.72666 6.9217 2.72414 6.90803 2.723C6.82242 2.716 6.73686 2.70817 6.6512 2.70291C6.52088 2.69493 6.39056 2.68679 6.26009 2.68241C6.06092 2.67577 5.8617 2.6685 5.66238 2.66943C5.57821 2.66979 5.494 2.66948 5.40983 2.66948H5.40993ZM10.0121 2.58011C9.787 2.58078 9.56194 2.58233 9.33719 2.59541C9.26004 2.59989 9.18289 2.60473 9.10574 2.60947C9.09718 2.60999 9.08862 2.61102 9.08011 2.61189C9.02885 2.61715 8.97759 2.62184 8.92638 2.62776C8.85985 2.63549 8.79327 2.64285 8.7271 2.65279C8.65413 2.66371 8.58141 2.67633 8.50896 2.69014C8.43315 2.70456 8.35718 2.71898 8.28225 2.73737C8.12228 2.77662 7.96447 2.8235 7.81073 2.8833C7.78825 2.89206 7.76643 2.90149 7.74591 2.91421C7.67438 2.95841 7.60213 3.00147 7.53106 3.04639C7.13943 3.29405 6.74754 3.5413 6.35673 3.7903C5.96696 4.03863 5.59079 4.30623 5.22892 4.59371C5.07828 4.71337 4.93135 4.83751 4.79278 4.97108C4.74461 5.01754 4.69768 5.06539 4.65194 5.11428C4.59557 5.17455 4.54477 5.2394 4.49949 5.30852C4.46277 5.36462 4.43101 5.42334 4.40641 5.48582C4.38238 5.54691 4.36706 5.61017 4.36273 5.67559C4.35674 5.7665 4.37644 5.85284 4.41352 5.93551C4.4227 5.95601 4.43591 5.97399 4.45127 5.99042C4.47613 6.01695 4.5047 6.03874 4.5359 6.05718C4.62187 6.10797 4.71527 6.13424 4.81459 6.13929C4.93207 6.14521 5.04311 6.11982 5.14785 6.06681C5.19375 6.04358 5.23923 6.01947 5.28477 5.99542C5.52917 5.86613 5.76799 5.72746 5.99774 5.57355C6.13044 5.48469 6.25993 5.3913 6.3869 5.29451C6.413 5.27463 6.44002 5.25645 6.47076 5.24491C6.49319 5.23651 6.51624 5.22956 6.5394 5.22333C6.81778 5.14894 7.09621 5.07477 7.37465 5.00075C7.52714 4.96021 7.67979 4.92019 7.83224 4.87944C7.85916 4.87223 7.88629 4.86986 7.91382 4.87058C7.97215 4.87202 8.02001 4.89603 8.05761 4.94002C8.06983 4.95434 8.0805 4.97 8.09092 4.98571C8.15358 5.08002 8.21593 5.17455 8.27838 5.26907C8.34646 5.37214 8.41618 5.47418 8.48224 5.57854C8.72071 5.95545 8.95794 6.33312 9.19568 6.71054C9.34013 6.93986 9.48479 7.16914 9.62893 7.39867C9.64461 7.42365 9.66256 7.44616 9.6853 7.46496C9.71176 7.4868 9.7377 7.50942 9.76441 7.53095C9.86998 7.6162 9.97982 7.69578 10.0903 7.77439C10.3576 7.96441 10.6314 8.14464 10.9075 8.32148C11.0087 8.38628 11.111 8.44943 11.2111 8.51578C11.7076 8.84478 12.2035 9.17455 12.6995 9.50432C12.7282 9.52338 12.7579 9.53986 12.7895 9.55372C12.8681 9.58807 12.9463 9.62341 13.0246 9.65833C13.2173 9.7442 13.41 9.83007 13.6027 9.91584C13.6136 9.92068 13.6247 9.92516 13.636 9.92902C13.6385 9.9299 13.6436 9.92835 13.6452 9.92619C13.6545 9.91398 13.6635 9.90146 13.672 9.88869C13.7957 9.70305 13.9149 9.51462 14.0312 9.32424C14.2386 8.98458 14.4365 8.6394 14.6293 8.2913C14.7789 8.02128 14.927 7.75049 15.0719 7.47794C15.1621 7.30837 15.2543 7.13988 15.3455 6.97087C15.3528 6.95727 15.3604 6.94378 15.3667 6.92977C15.3685 6.9259 15.3676 6.91941 15.3654 6.9155C15.3589 6.90345 15.3513 6.89201 15.3439 6.88042C14.462 5.50164 13.5801 4.12291 12.6982 2.74412C12.6918 2.73403 12.6856 2.72367 12.6786 2.71394C12.6735 2.70678 12.6664 2.7024 12.657 2.70188C12.6005 2.69864 12.5439 2.69508 12.4873 2.69189C12.4015 2.6871 12.3157 2.68252 12.23 2.67783C12.2231 2.67747 12.2163 2.67695 12.2094 2.67649C12.1306 2.67134 12.0518 2.66577 11.9729 2.66109C11.8854 2.65588 11.798 2.65151 11.7105 2.64672C11.7036 2.64635 11.6968 2.64579 11.6899 2.64538C11.6094 2.64017 11.5288 2.63461 11.4483 2.62982C11.3626 2.62472 11.2767 2.62034 11.191 2.61565C11.1841 2.61529 11.1773 2.61462 11.1704 2.61421C11.0847 2.6088 10.999 2.60319 10.9133 2.59809C10.831 2.5932 10.7486 2.58882 10.6663 2.58423C10.6406 2.58279 10.6149 2.58037 10.5891 2.58032C10.3967 2.58001 10.2043 2.58011 10.0119 2.58011H10.0121ZM1.93485 11.0152C1.93506 11.0618 1.93965 11.1077 1.95357 11.1523C2.00066 11.3037 2.09684 11.4113 2.24222 11.4748C2.28492 11.4934 2.32968 11.5044 2.37589 11.5108C2.45784 11.5221 2.53684 11.51 2.61317 11.4806C2.64989 11.4664 2.68485 11.4479 2.72064 11.4313C2.72462 11.4295 2.72673 11.4216 2.724 11.4181C2.71776 11.4101 2.71157 11.4018 2.70492 11.3941C2.55469 11.22 2.41055 11.041 2.2728 10.8568C2.22659 10.795 2.18147 10.7324 2.13588 10.6701C2.1318 10.6646 2.12788 10.6589 2.12376 10.6535C2.11262 10.6386 2.10782 10.6378 2.0957 10.6492C1.9907 10.7487 1.93712 10.8707 1.9349 11.0152H1.93485ZM3.72278 12.6512C3.77172 12.6526 3.82396 12.644 3.87491 12.6275C3.88956 12.6228 3.90374 12.6166 3.91803 12.6109C3.92917 12.6065 3.94015 12.6018 3.95119 12.5971C3.96057 12.5932 3.96212 12.5848 3.95439 12.5788C3.91787 12.5504 3.88121 12.5221 3.84464 12.4937C3.6479 12.3413 3.4593 12.1794 3.27932 12.0075C3.27437 12.0028 3.26931 11.9982 3.26415 11.9937C3.25843 11.9887 3.25008 11.9903 3.24776 11.9969C3.21805 12.0796 3.21315 12.1648 3.23032 12.2502C3.28086 12.5013 3.50499 12.6544 3.72278 12.6513V12.6512ZM5.57589 13.5089C5.56795 13.5035 5.56135 13.4983 5.55397 13.4944C5.52973 13.4816 5.50503 13.4698 5.4809 13.4568C5.31499 13.3679 5.14919 13.2787 4.98339 13.1896C4.96982 13.1823 4.95626 13.175 4.94254 13.168C4.93966 13.1665 4.93594 13.1665 4.93264 13.1658C4.93171 13.1707 4.92903 13.176 4.93011 13.1805C4.93445 13.1988 4.93893 13.217 4.94507 13.2348C5.00005 13.394 5.11036 13.4957 5.27116 13.542C5.35367 13.5657 5.43706 13.563 5.51926 13.5366C5.53897 13.5303 5.55769 13.5223 5.57589 13.5088V13.5089Z"/>
</svg>
