<svg width="70" height="64" viewBox="0 0 70 64" fill="none" xmlns="http://www.w3.org/2000/svg">
<path d="M24.5287 64.4605C23.5622 63.722 23.4317 62.2299 24.2201 61.2877L27.1662 57.769C27.9435 56.8405 29.3783 56.7107 30.3067 57.4917C31.2411 58.2726 31.405 59.7237 30.6165 60.6656L27.6706 64.1842C26.9402 64.9684 25.597 65.2766 24.5287 64.4605Z" fill="url(#paint0_linear_100_1946)"/>
<path d="M16.6993 57.8366C15.7329 57.0981 15.6023 55.606 16.3908 54.6638L19.3368 51.1451C20.1141 50.2166 21.5489 50.0868 22.4773 50.8678C23.4117 51.6487 23.5757 53.0998 22.7871 54.0417L19.8412 57.5603C19.1109 58.3445 17.7675 58.6527 16.6993 57.8366Z" fill="url(#paint1_linear_100_1946)"/>
<path d="M8.7164 51.3666C7.74996 50.6282 7.61943 49.1361 8.40787 48.1938L11.3539 44.6751C12.1312 43.7466 13.566 43.6168 14.4944 44.3978C15.4288 45.1787 15.5928 46.6298 14.8042 47.5717L11.8583 51.0903C11.1278 51.8747 9.78456 52.1828 8.7164 51.3666Z" fill="url(#paint2_linear_100_1946)"/>
<path d="M1.04049 44.5887C0.0740497 43.8502 -0.0564838 42.3581 0.731958 41.4159L3.67798 37.8971C4.45533 36.9687 5.89012 36.8389 6.8185 37.6199C7.75288 38.4007 7.91686 39.8518 7.12826 40.7938L4.18239 44.3123C3.4519 45.0966 2.10865 45.4046 1.04049 44.5887Z" fill="url(#paint3_linear_100_1946)"/>
<path d="M42.9851 2.4218C39.4772 4.24004 37.0496 7.78198 36.0192 12.6941C35.9765 12.8979 35.9106 13.0964 35.8232 13.2833L29.3144 27.2637C28.6668 28.6551 29.0997 30.3152 30.3392 31.2084C31.8973 32.3042 34.1928 31.78 35.0619 30.0574L40.5376 19.2003C41.3025 17.6834 43.3652 17.2494 44.6728 18.3383L64.3589 34.9763C79.1342 10.7671 56.0208 -5.67471 42.9851 2.4218Z" fill="url(#paint4_linear_100_1946)"/>
<path d="M65.673 42.5021C65.673 42.5021 62.3624 38.5276 62.3705 38.5146L43.7933 23.047L39.2012 32.1517C37.0659 36.385 31.5094 37.7852 27.6311 35.0576C24.4926 32.8507 23.3915 28.721 25.0129 25.2383L31.3801 11.5405C31.3459 11.4777 30.2415 5.751 25.6755 2.75815C23.1534 1.10499 20.2729 0 17.0416 0C10.4229 0 3.93088 3.87582 0.502635 9.87406C-4.23881 18.1694 -4.14526 28.6999 0.654282 36.9323L1.55122 35.861C3.4032 33.649 6.76009 33.315 8.93092 35.2127C11.0346 37.0517 11.2902 40.2488 9.48804 42.4014C11.3118 40.2231 14.552 39.9389 16.7256 41.7667C18.8991 43.5947 19.1827 46.8422 17.3589 49.0205C19.1827 46.8422 22.4229 46.5582 24.5964 48.386C26.7698 50.2138 27.0532 53.4615 25.2296 55.6399C27.0534 53.4615 30.2936 53.1774 32.4671 55.0053C34.6405 56.8331 34.9239 60.0808 33.1003 62.259L30.1902 65.7351C30.7757 66.133 31.3696 66.5317 31.9728 66.9312L35.0602 69.6069C37.0994 71.374 40.1547 71.2606 42.0578 69.3468C43.9872 67.4068 44.0628 64.2923 42.2301 62.2604L42.5006 62.4978C44.2744 64.6166 47.4228 64.9018 49.5468 63.1358C51.688 61.3558 51.9753 58.1695 50.1871 56.0337L50.2016 56.0508C51.7478 57.8979 54.4089 58.4149 56.4797 57.1899C59.1876 55.5879 59.7102 52.0387 57.7837 49.7376L57.4888 49.3855C59.3852 51.6505 62.7547 51.9459 65.0146 50.0453C67.2744 48.1442 67.5694 44.7673 65.673 42.5021Z" fill="url(#paint5_linear_100_1946)"/>
<defs>
<linearGradient id="paint0_linear_100_1946" x1="27.4129" y1="56.9802" x2="27.4129" y2="64.942" gradientUnits="userSpaceOnUse">
<stop stop-color="#D3D0FF"/>
<stop offset="1" stop-color="#9791E2"/>
</linearGradient>
<linearGradient id="paint1_linear_100_1946" x1="19.5836" y1="50.3563" x2="19.5836" y2="58.3181" gradientUnits="userSpaceOnUse">
<stop stop-color="#D3D0FF"/>
<stop offset="1" stop-color="#9791E2"/>
</linearGradient>
<linearGradient id="paint2_linear_100_1946" x1="11.6007" y1="43.8864" x2="11.6007" y2="51.8482" gradientUnits="userSpaceOnUse">
<stop stop-color="#D3D0FF"/>
<stop offset="1" stop-color="#9791E2"/>
</linearGradient>
<linearGradient id="paint3_linear_100_1946" x1="3.92476" y1="37.1084" x2="3.92476" y2="45.0701" gradientUnits="userSpaceOnUse">
<stop stop-color="#D3D0FF"/>
<stop offset="1" stop-color="#9791E2"/>
</linearGradient>
<linearGradient id="paint4_linear_100_1946" x1="49.0702" y1="0.335693" x2="49.0702" y2="34.9763" gradientUnits="userSpaceOnUse">
<stop stop-color="#D3D0FF"/>
<stop offset="1" stop-color="#9791E2"/>
</linearGradient>
<linearGradient id="paint5_linear_100_1946" x1="31.9614" y1="0" x2="31.9614" y2="70.8608" gradientUnits="userSpaceOnUse">
<stop stop-color="#D3D0FF"/>
<stop offset="1" stop-color="#9791E2"/>
</linearGradient>
</defs>
</svg>
