<svg width="28" height="28" viewBox="0 0 28 28" fill="none" xmlns="http://www.w3.org/2000/svg">
<g clip-path="url(#clip0_195_2363)">
<path d="M12.2158 19.0332C13.6133 19.0332 14.9228 18.6113 16.0127 17.8906L19.8623 21.749C20.1172 21.9951 20.4424 22.1182 20.7939 22.1182C21.5234 22.1182 22.0595 21.5469 22.0595 20.8262C22.0595 20.4922 21.9453 20.167 21.6992 19.9209L17.8759 16.0801C18.667 14.9551 19.1328 13.5928 19.1328 12.1162C19.1328 8.31055 16.0215 5.19922 12.2158 5.19922C8.41892 5.19922 5.2988 8.31055 5.2988 12.1162C5.2988 15.9219 8.41013 19.0332 12.2158 19.0332ZM12.2158 17.1875C9.42966 17.1875 7.1445 14.9023 7.1445 12.1162C7.1445 9.33008 9.42966 7.04492 12.2158 7.04492C15.0019 7.04492 17.2871 9.33008 17.2871 12.1162C17.2871 14.9023 15.0019 17.1875 12.2158 17.1875Z" fill="#3C3C43" fill-opacity="0.6"/>
</g>
<defs>
<clipPath id="clip0_195_2363">
<rect width="28" height="28" fill="white"/>
</clipPath>
</defs>
</svg>
