<svg width="70" height="70" viewBox="0 0 70 70" fill="none" xmlns="http://www.w3.org/2000/svg">
<path fill-rule="evenodd" clip-rule="evenodd" d="M69.7496 46.4948C68.7794 50.9591 67.0154 55.2168 64.5654 59.0616C63.8304 60.2121 62.2918 60.5563 61.1452 59.8286C58.9892 58.4716 56.1668 58.7961 54.3636 60.6054C52.5604 62.4148 52.237 65.2467 53.5894 67.41C54.3146 68.5605 53.9716 70.0945 52.825 70.832C48.9932 73.3001 44.7498 75.0701 40.3006 76.0436C38.9678 76.3386 37.6448 75.4929 37.341 74.1655C36.7726 71.6678 34.548 69.8978 32 69.8978C29.452 69.8978 27.2274 71.6678 26.659 74.1655C26.3552 75.4929 25.0322 76.3386 23.6994 76.0436C19.2502 75.0701 15.0068 73.3001 11.175 70.832C10.0284 70.1043 9.6854 68.5605 10.4106 67.41C11.763 65.2467 11.4494 62.4148 9.6364 60.6054C7.8332 58.7961 5.0108 58.4716 2.8548 59.8286C1.7082 60.5563 0.179397 60.2121 -0.555604 59.0616C-3.0154 55.2168 -4.7794 50.9591 -5.7496 46.4948C-6.0436 45.1575 -5.2008 43.83 -3.8778 43.5251C-1.3886 42.9548 0.375395 40.7227 0.375395 38.166C0.375395 35.6094 -1.3886 33.3773 -3.8778 32.8069C-5.2008 32.5021 -6.0436 31.1746 -5.7496 29.8373C-4.7794 25.373 -3.0154 21.1152 -0.555604 17.2704C0.179397 16.12 1.7082 15.7758 2.8548 16.5034C5.0108 17.8604 7.8332 17.5359 9.6364 15.7266C11.4494 13.9173 11.763 11.0853 10.4106 8.92203C9.6854 7.77155 10.0284 6.23757 11.175 5.50007C15.0068 3.03194 19.2502 1.26196 23.6994 0.288466C25.0322 -0.0065303 26.3552 0.839127 26.659 2.16661C27.2274 4.66425 29.452 6.43423 32 6.43423C34.548 6.43423 36.7726 4.66425 37.341 2.16661C37.6448 0.839127 38.9678 -0.0065303 40.3006 0.288466C44.7498 1.26196 48.9932 3.03194 52.825 5.50007C53.9716 6.22773 54.3146 7.77155 53.5894 8.92203C52.237 11.0853 52.5604 13.9173 54.3636 15.7266C56.1668 17.5359 58.9892 17.8604 61.1452 16.5034C62.2918 15.7758 63.8206 16.12 64.5556 17.2704C67.0154 21.1152 68.7794 25.373 69.7496 29.8373C70.0436 31.1746 69.2008 32.5021 67.8778 32.8069C65.3886 33.3773 63.6246 35.6094 63.6246 38.166C63.6246 40.7227 65.3886 42.9548 67.8778 43.5251C69.2008 43.83 70.0436 45.1575 69.7496 46.4948ZM32 20.1811C41.898 20.1811 49.9242 28.2345 49.9242 38.166C49.9242 48.0976 41.898 56.151 32 56.151C22.102 56.151 14.0758 48.0976 14.0758 38.166C14.0758 28.2345 22.102 20.1811 32 20.1811Z" fill="url(#paint0_linear_99_1911)"/>
<defs>
<linearGradient id="paint0_linear_99_1911" x1="32" y1="0.229736" x2="32" y2="76.1023" gradientUnits="userSpaceOnUse">
<stop stop-color="#D2C0EF"/>
<stop offset="1" stop-color="#A28DCD"/>
</linearGradient>
</defs>
</svg>
