<svg width="78" height="113" viewBox="0 0 78 113" fill="none" xmlns="http://www.w3.org/2000/svg">
<path d="M68.7995 99.2554L36.3602 108.761C32.9378 109.759 29.3056 109.79 25.8672 108.848L0 101.733V80.2944L7.19437 78.9262C10.1016 78.3663 13.0979 78.4728 15.9581 79.2376C18.8182 80.0024 21.4678 81.4056 23.7076 83.3418C25.5876 84.9684 27.9077 86.0012 30.3745 86.3096L39.8128 87.5062C41.0613 87.6652 42.1994 88.3024 42.9875 89.2836C43.7756 90.2649 44.1522 91.5136 44.0381 92.767C43.924 94.0204 43.328 95.1806 42.3756 96.0034C41.4233 96.8262 40.1888 97.2474 38.9322 97.1783L25.5086 96.7503C24.1909 96.7082 22.8768 96.5886 21.5731 96.3921L16.4137 95.616C15.7464 95.518 15.0676 95.6886 14.5258 96.0903C13.9841 96.492 13.6237 97.0921 13.5236 97.7591C13.4236 98.426 13.592 99.1054 13.9919 99.6485C14.3919 100.191 14.9908 100.554 15.6574 100.656L20.8169 101.432C22.3184 101.658 23.8319 101.794 25.3494 101.84L38.7334 102.268C41.3022 102.431 43.8318 101.575 45.7744 99.8866C47.7169 98.1978 48.916 95.8118 49.112 93.2453C49.1418 92.9318 49.1568 92.6186 49.1568 92.3099C49.3741 92.3325 49.5936 92.3241 49.8085 92.285L66.5754 89.5137C67.8332 89.3061 69.1229 89.5862 70.1812 90.2969C71.2396 91.0076 71.9869 92.0954 72.2706 93.3383C72.5543 94.5811 72.3531 95.8854 71.7081 96.985C71.063 98.0846 70.0228 98.8966 68.7995 99.2554ZM40.1238 77.5597C45.1732 76.6712 49.7755 74.1059 53.1868 70.2786C56.5982 66.4512 58.6193 61.5854 58.9235 56.4674C58.9054 54.4231 58.3497 52.4195 57.3124 50.6578C56.275 48.8961 54.7925 47.4383 53.0136 46.4307C50.9915 45.3139 48.6795 44.8332 46.3798 45.0513C44.0802 45.2695 41.8998 46.1764 40.1238 47.6535C38.4522 46.2622 36.4185 45.3765 34.2613 45.1003C32.104 44.8241 29.9128 45.1688 27.9446 46.0941C25.9764 47.0194 24.3129 48.4868 23.1493 50.3241C21.9857 52.1615 21.3702 54.2926 21.375 56.4674C21.6876 61.5746 23.7051 66.4292 27.1045 70.2535C30.5039 74.0778 35.0884 76.6506 40.1238 77.5597Z" fill="url(#paint0_linear_99_1906)"/>
<defs>
<linearGradient id="paint0_linear_99_1906" x1="36.1981" y1="45" x2="36.1981" y2="109.533" gradientUnits="userSpaceOnUse">
<stop stop-color="#F1D1AC"/>
<stop offset="1" stop-color="#E5A17B"/>
</linearGradient>
</defs>
</svg>
