<svg width="79" height="79" viewBox="0 0 79 79" fill="none" xmlns="http://www.w3.org/2000/svg">
<path d="M39.1667 0C31.4203 0 23.8478 2.29709 17.4069 6.60077C10.9659 10.9045 5.94584 17.0215 2.9814 24.1782C0.0169703 31.335 -0.75866 39.2101 0.752594 46.8077C2.26385 54.4053 5.99411 61.3841 11.4717 66.8617C16.9492 72.3392 23.9281 76.0695 31.5257 77.5808C39.1232 79.092 46.9983 78.3164 54.1551 75.352C61.3119 72.3875 67.4289 67.3674 71.7326 60.9265C76.0363 54.4856 78.3334 46.9131 78.3334 39.1667C78.3334 34.0232 77.3203 28.9302 75.352 24.1782C73.3837 19.4263 70.4987 15.1086 66.8617 11.4717C63.2247 7.83469 58.907 4.94969 54.1551 2.98139C49.4032 1.01308 44.3101 0 39.1667 0ZM61.3977 32.2616L37.8977 53.8033C37.1537 54.4855 36.1749 54.8541 35.1657 54.8322C34.1565 54.8103 33.1947 54.3996 32.4809 53.6857L20.7309 41.9357C20.3569 41.5745 20.0585 41.1423 19.8532 40.6644C19.6479 40.1866 19.5399 39.6726 19.5354 39.1526C19.5309 38.6325 19.6299 38.1168 19.8269 37.6354C20.0238 37.1541 20.3146 36.7168 20.6824 36.349C21.0501 35.9813 21.4874 35.6905 21.9688 35.4935C22.4501 35.2966 22.9659 35.1975 23.4859 35.202C24.006 35.2065 24.5199 35.3146 24.9978 35.5199C25.4756 35.7251 25.9078 36.0235 26.2691 36.3976L35.3675 45.496L56.1024 26.4884C56.8679 25.7862 57.8811 25.4169 58.919 25.4617C59.9568 25.5065 60.9344 25.9618 61.6366 26.7273C62.3388 27.4929 62.7081 28.5061 62.6633 29.5439C62.6185 30.5818 62.1633 31.5594 61.3977 32.2616Z" fill="#32C853"/>
</svg>
