<svg width="73" height="74" viewBox="0 0 73 74" fill="none" xmlns="http://www.w3.org/2000/svg">
<path d="M35.5404 35.7549C32.883 33.7268 29.594 32.5131 26.0043 32.5131C17.3064 32.5131 10.2319 39.6073 10.2319 48.3303C10.2319 57.0531 17.3136 64.1476 26.0149 64.1476C34.7128 64.1476 41.7872 57.0533 41.7872 48.3303C41.7872 44.5947 40.4791 41.1607 38.3141 38.4507L27.2443 49.5366C26.8684 49.9135 26.3797 50.1058 25.8873 50.1058C25.3949 50.1058 24.9063 49.9135 24.5303 49.5366C23.7785 48.7827 23.7785 47.5576 24.5303 46.8075L35.5404 35.7549Z" fill="url(#paint0_linear_100_1940)"/>
<path d="M71.8772 17.1409L61.3039 16.1759C60.9393 16.1458 60.5822 16.2739 60.3229 16.534L41.0441 35.7056C44.442 39.7691 46.2501 45.2199 45.4419 51.0887C44.2278 59.9659 36.9657 66.9812 28.0837 67.9009C16.018 69.1448 5.84694 59.3403 6.41371 47.3647C6.87605 37.7032 14.4951 29.6667 24.099 28.7509C29.4892 28.2307 34.4731 29.927 38.2923 33.018L57.4393 13.6505C57.6986 13.3904 57.8227 13.0323 57.7964 12.6667L56.8341 2.06331C56.7364 1.02295 55.4771 0.559265 54.7367 1.30187L43.2387 12.8182C42.9793 13.0782 42.8553 13.4363 42.8816 13.802L43.5845 21.5219C38.2244 17.971 32.0076 16.1391 25.5047 16.2333C9.01062 16.4858 -4.79487 29.5811 -5.92264 46.0807C-7.26075 65.6103 8.94326 81.7856 28.4405 80.3381C44.923 79.113 57.9057 65.1278 58.0183 48.5607C58.0672 42.0169 56.169 35.7938 52.5605 30.4371L60.1608 31.1307C60.5254 31.1608 60.8825 31.0327 61.1418 30.7726L72.6398 19.2418C73.3765 18.503 72.9142 17.2289 71.8768 17.1422L71.8772 17.1409Z" fill="url(#paint1_linear_100_1940)"/>
<defs>
<linearGradient id="paint0_linear_100_1940" x1="26.0096" y1="32.5131" x2="26.0096" y2="64.1476" gradientUnits="userSpaceOnUse">
<stop stop-color="#F7BBEE"/>
<stop offset="1" stop-color="#E266CE"/>
</linearGradient>
<linearGradient id="paint1_linear_100_1940" x1="33.5" y1="0.937988" x2="33.5" y2="80.4283" gradientUnits="userSpaceOnUse">
<stop stop-color="#F7BBEE"/>
<stop offset="1" stop-color="#E266CE"/>
</linearGradient>
</defs>
</svg>
