<svg width="16" height="16" viewBox="0 0 16 16" fill="none" xmlns="http://www.w3.org/2000/svg">
<path fill-rule="evenodd" clip-rule="evenodd" d="M8 0C3.58133 0 0 3.58133 0 8C0 12.4187 3.58133 16 8 16C12.4187 16 16 12.4187 16 8C16 3.58133 12.4187 0 8 0ZM8.44444 5.33333H7.55556C7.31022 5.33333 7.11111 5.13422 7.11111 4.88889V4C7.11111 3.75467 7.31022 3.55556 7.55556 3.55556H8.44444C8.68978 3.55556 8.88889 3.75467 8.88889 4V4.88889C8.88889 5.13422 8.68978 5.33333 8.44444 5.33333ZM8.44444 12.4444H7.55556C7.31022 12.4444 7.11111 12.2453 7.11111 12V7.55556C7.11111 7.31022 7.31022 7.11111 7.55556 7.11111H8.44444C8.68978 7.11111 8.88889 7.31022 8.88889 7.55556V12C8.88889 12.2453 8.68978 12.4444 8.44444 12.4444Z" fill="#D6D4D4"/>
</svg>
