<svg width="122" height="122" viewBox="0 0 122 122" fill="none" xmlns="http://www.w3.org/2000/svg">
<path d="M38.125 78.7917H22.875C21.4713 78.7917 20.3333 79.9296 20.3333 81.3334V116.917C20.3333 118.32 21.4713 119.458 22.875 119.458H38.125C39.5287 119.458 40.6667 118.32 40.6667 116.917V81.3334C40.6667 79.9296 39.5287 78.7917 38.125 78.7917Z" fill="#6FABE6"/>
<path d="M40.6667 81.3334C40.6667 116.205 40.4125 114.375 40.6667 114.375C37.2962 114.375 34.0638 113.036 31.6805 110.653C29.2973 108.27 27.9583 105.037 27.9583 101.667V78.7917H38.125C38.7991 78.7917 39.4456 79.0595 39.9222 79.5361C40.3989 80.0128 40.6667 80.6593 40.6667 81.3334Z" fill="#82BCF4"/>
<path d="M89.5175 78.7917H71.1667L74.8013 64.533C76.1992 56.1963 64.3804 52.5617 62.5759 59.7546C59.6529 71.4463 57.2892 72.3359 48.2917 81.3334L40.6667 83.875V116.917H46.8175C53.9088 116.917 55.3829 119.458 62.4742 119.458H84.4342C86.4528 119.46 88.4137 118.785 90.0034 117.541C91.593 116.297 92.7196 114.556 93.2029 112.596L98.8454 90.0513C99.1739 88.672 99.1773 87.2352 98.8554 85.8543C98.5334 84.4735 97.895 83.1863 96.9905 82.0944C96.0859 81.0026 94.94 80.1358 93.6431 79.5627C92.3462 78.9895 90.9339 78.7256 89.5175 78.7917Z" fill="#EDB996"/>
<path d="M98.8454 90.0513C92.6692 114.731 93.1775 114.655 90.585 117.044C91.567 116.112 92.3308 114.975 92.8217 113.714C91.7724 114.143 90.6509 114.367 89.5175 114.375C66.2358 114.375 65.27 114.833 59.3225 112.977C56.9221 112.217 54.4188 111.831 51.9008 111.833C50.2695 111.833 48.705 111.185 47.5515 110.032C46.398 108.878 45.75 107.314 45.75 105.683V82.1721L48.2917 81.3334C54.9508 74.6742 59.6529 71.4209 61.9404 62.2963C62.5758 59.7546 63.0842 56.1454 67.0238 55.9167C68.1245 55.872 69.2213 56.0729 70.2347 56.5048C71.2481 56.9367 72.1527 57.5888 72.8827 58.4138C73.6128 59.2387 74.15 60.2159 74.4555 61.2743C74.761 62.3327 74.827 63.4458 74.6488 64.5329L71.1667 78.7917H89.5175C90.9354 78.7202 92.3504 78.9806 93.6499 79.552C94.9495 80.1235 96.0978 80.9903 97.0035 82.0836C97.9092 83.1768 98.5473 84.4663 98.867 85.8495C99.1868 87.2327 99.1794 88.6715 98.8454 90.0513Z" fill="#F6CCAF"/>
<path d="M67.3542 55.9167C66.252 55.9479 65.1898 56.3367 64.3279 57.0244C63.466 57.7121 62.8511 58.6614 62.5758 59.7292C61.7035 65.1658 59.2148 70.214 55.4337 74.2167C62.3217 67.5829 65.0667 65.0921 67.3542 55.9167Z" fill="#EDB996"/>
<path d="M61 2.54169L64.3042 9.22627L71.7004 10.3192L66.3375 15.5296L67.6083 22.875L61 19.3929L54.3917 22.875L55.6625 15.5296L50.2996 10.3192L57.6958 9.22627L61 2.54169Z" fill="#FFCC66"/>
<path d="M61 2.54169L64.3042 9.22627L71.7004 10.3192L66.3375 15.5296L67.6083 22.875L61 19.3929L54.3917 22.875L55.6625 15.5296L50.2996 10.3192L57.6958 9.22627L61 2.54169ZM86.4167 20.3334L89.7208 27.0179L97.1171 28.1109L91.7542 33.3213L93.025 40.6667L86.4167 37.1846L79.8083 40.6667L81.0792 33.3213L75.7163 28.1109L83.1125 27.0179L86.4167 20.3334ZM108.758 40.6667L112.062 47.3513L119.458 48.4442L114.121 53.6546L115.366 61L108.758 57.5179L102.175 61L103.42 53.6546L98.0829 48.4442L105.454 47.3513L108.758 40.6667ZM35.5833 20.3334L32.2792 27.0179L24.8829 28.1109L30.2458 33.3213L28.975 40.6667L35.5833 37.1846L42.1917 40.6667L40.9208 33.3213L46.2837 28.1109L38.8875 27.0179L35.5833 20.3334ZM13.2421 40.6667L9.93792 47.3513L2.54167 48.4442L7.87917 53.6546L6.63375 61L13.2421 57.5179L19.825 61L18.5796 53.6546L23.9171 48.4442L16.5463 47.3513L13.2421 40.6667Z" fill="#FFDE76"/>
</svg>
