<svg width="19" height="18" viewBox="0 0 19 18" fill="none" xmlns="http://www.w3.org/2000/svg">
<path d="M9.50211 4.72104e-05H9.49687H9.49426C8.96677 0.00275789 8.51179 0.320827 8.29606 0.780772L6.07436 5.33049L1.6685 6.01272C1.00915 6.09946 0.5 6.68229 0.5 7.38802C0.5 7.76843 0.649337 8.11362 0.8895 8.36574L4.09368 11.7362L3.29896 16.3617C3.28499 16.4431 3.27713 16.5262 3.27713 16.612C3.27713 17.3783 3.87709 17.9991 4.61766 17.9991V18C4.84298 17.9991 5.05431 17.9413 5.24035 17.841L9.49954 15.6036L13.7596 17.8419C13.9456 17.9413 14.1578 17.9991 14.3823 17.9991C15.1229 17.9991 15.7228 17.3774 15.7228 16.612C15.7228 16.5262 15.715 16.4431 15.701 16.3617L14.9063 11.7362L18.1114 8.36481C18.3515 8.11362 18.5 7.76843 18.5 7.38799C18.5 6.68226 17.9909 6.09944 17.3324 6.01179L12.9265 5.33047L10.7083 0.779823C10.4908 0.318073 10.0322 4.72104e-05 9.50211 4.72104e-05Z" fill="white"/>
</svg>
