<svg width="15" height="15" viewBox="0 0 15 15" fill="none" xmlns="http://www.w3.org/2000/svg">
<path d="M7.96307 0.307776H7.959H7.95696C7.54669 0.309884 7.19281 0.557271 7.02503 0.915006L5.29704 4.45368L1.87026 4.9843C1.35743 5.05177 0.961426 5.50507 0.961426 6.05398C0.961426 6.34985 1.07758 6.61833 1.26437 6.81443L3.75651 9.43586L3.1384 13.0335C3.12753 13.0968 3.12141 13.1615 3.12141 13.2282C3.12141 13.8242 3.58806 14.307 4.16405 14.307V14.3077C4.3393 14.307 4.50367 14.2621 4.64836 14.184L7.96107 12.4439L11.2745 14.1847C11.4192 14.2621 11.5842 14.307 11.7588 14.307C12.3348 14.307 12.8014 13.8235 12.8014 13.2282C12.8014 13.1615 12.7953 13.0968 12.7844 13.0335L12.1663 9.43586L14.6592 6.8137C14.8459 6.61833 14.9614 6.34985 14.9614 6.05396C14.9614 5.50506 14.5654 5.05175 14.0533 4.98358L10.6265 4.45366L8.90121 0.914268C8.73208 0.555129 8.37537 0.307776 7.96307 0.307776Z" fill="black"/>
</svg>
