<svg id="noun-calendar-1825599" xmlns="http://www.w3.org/2000/svg" width="14.521" height="14.521" viewBox="0 0 14.521 14.521">
  <path id="noun-calendar-1825599-2" data-name="noun-calendar-1825599" d="M117.965,36.037h-1.556v-.519a.519.519,0,1,0-1.037,0v.519h-6.223v-.519a.519.519,0,1,0-1.037,0v.519h-1.556A1.556,1.556,0,0,0,105,37.593V47.965a1.556,1.556,0,0,0,1.556,1.556h11.409a1.556,1.556,0,0,0,1.556-1.556V37.593a1.556,1.556,0,0,0-1.556-1.556Zm-11.409,1.037h1.556v.519a.519.519,0,1,0,1.037,0v-.519h6.223v.519a.519.519,0,1,0,1.037,0v-.519h1.556a.519.519,0,0,1,.519.519V40.7H106.037V37.593a.519.519,0,0,1,.519-.519Zm11.409,11.409H106.556a.519.519,0,0,1-.519-.519V41.742h12.446v6.223a.519.519,0,0,1-.519.519Z" transform="translate(-105 -35)"/>
</svg>
