<svg id="noun-clock-1825591" xmlns="http://www.w3.org/2000/svg" width="15.481" height="15.481" viewBox="0 0 15.481 15.481">
  <path id="Path_102" data-name="Path 102" d="M112.742,35a7.74,7.74,0,1,0,3.87,1.037A7.741,7.741,0,0,0,112.742,35Zm0,14.375a6.635,6.635,0,1,1,4.691-1.943A6.634,6.634,0,0,1,112.742,49.374Z" transform="translate(-105.002 -34.998)"/>
  <path id="Path_103" data-name="Path 103" d="M336.37,126.923h-2.764v-3.87a.553.553,0,1,0-1.106,0v4.423a.553.553,0,0,0,.553.553h3.317a.553.553,0,1,0,0-1.106Z" transform="translate(-325.312 -119.736)"/>
</svg>
