<svg xmlns="http://www.w3.org/2000/svg" width="13.29" height="16.5" viewBox="0 0 13.29 16.5">
  <g id="noun-delete-1020814" transform="translate(0.25 0.25)">
    <path id="Path_359672" data-name="Path 359672" d="M161.721,51.6h.01a.463.463,0,0,0,.453-.473L162,42.27a.463.463,0,0,0-.463-.453h-.01a.463.463,0,0,0-.453.473l.185,8.852A.463.463,0,0,0,161.721,51.6Zm2.709,0a.463.463,0,0,0,.463-.453l.185-8.852a.463.463,0,0,0-.453-.473h-.01a.463.463,0,0,0-.463.453l-.185,8.852a.463.463,0,0,0,.453.473Zm3.644-9.778a.465.465,0,0,0-.479.446l-.371,10.417a.569.569,0,0,1-.568.569H159.5a.574.574,0,0,1-.57-.586l-.37-10.4a.463.463,0,1,0-.926.033L158,52.681a1.5,1.5,0,0,0,1.5,1.5h7.16A1.493,1.493,0,0,0,168.15,52.7l.37-10.4a.463.463,0,0,0-.446-.479Zm.933-1.853h-2.822V38.639a.463.463,0,0,0-.463-.463H160.43a.463.463,0,0,0-.463.463v1.326h-2.824a.463.463,0,0,0,0,.926h11.864a.463.463,0,0,0,0-.926Zm-3.749,0h-4.365V39.1h4.365Z" transform="translate(-156.68 -38.176)" stroke="#080909" stroke-width="0.5"/>
  </g>
</svg>
