<svg id="Component_49_22" data-name="Component 49 – 22" xmlns="http://www.w3.org/2000/svg" width="16.007" height="16.018" viewBox="0 0 16.007 16.018">
  <path id="Path_119" data-name="Path 119" d="M171.288,305.176a2.436,2.436,0,0,1-2.4-2.421V292.171a2.4,2.4,0,0,1,2.384-2.375h6.384v1.269h-6.369a1.122,1.122,0,0,0-1.127,1.107v10.583a1.16,1.16,0,0,0,1.131,1.151h10.58A1.159,1.159,0,0,0,183,302.754v-6.343h1.269v6.343a2.439,2.439,0,0,1-2.4,2.421H171.288Z" transform="translate(-168.888 -289.158)" fill="#080909"/>
  <path id="Path_120" data-name="Path 120" d="M175.605,299.2a.611.611,0,0,1-.151-.019.636.636,0,0,1-.463-.772l.623-2.494a.653.653,0,0,1,.167-.295L181.7,289.7a2,2,0,0,1,1.387-.557h0a2,2,0,0,1,1.386.556h0a1.957,1.957,0,0,1,0,2.771l-5.915,5.916a.645.645,0,0,1-.3.168l-2.493.623a.6.6,0,0,1-.155.02Zm1.171-2.762-.29,1.253,1.348-.338,4.67-4.7-.972-.971Zm6.623-4.689.173-.175a.682.682,0,0,0,0-.969.709.709,0,0,0-.975,0l-.17.17Z" transform="translate(-169.034 -289.142)" fill="#080909"/>
</svg>
