<svg version="1.0" xmlns="http://www.w3.org/2000/svg"
 width="20" height="20" viewBox="0 0 50.000000 50.000000">

<g transform="translate(0.000000,50.000000) scale(0.100000,-0.100000)"
fill="#000000" stroke="none">
<path d="M30 459 c0 -12 33 -57 80 -107 l80 -87 0 -90 0 -90 54 -33 c30 -17
57 -32 60 -32 3 0 6 55 6 123 l0 122 80 87 c47 50 80 95 80 107 0 21 -4 21
-220 21 -216 0 -220 0 -220 -21z m418 -8 c-1 -6 -36 -46 -76 -90 -73 -80 -74
-81 -122 -81 -48 0 -49 1 -122 81 -40 44 -74 84 -76 90 -2 5 75 9 198 9 123 0
200 -4 198 -9z m-158 -296 l0 -106 -40 23 -40 23 0 83 0 82 40 0 40 0 0 -105z"/>
</g>
</svg>
