<svg xmlns="http://www.w3.org/2000/svg" width="16.53" height="15.673" viewBox="0 0 16.53 15.673">
  <g id="noun-home-5611652" transform="translate(0.265 0.312)">
    <path id="Path_359673" data-name="Path 359673" d="M97.1,43.888H94.45a.891.891,0,0,1-.89-.89V39.6a.244.244,0,0,0-.244-.244H90.692a.244.244,0,0,0-.244.244V43a.891.891,0,0,1-.89.89H86.9a.891.891,0,0,1-.89-.89V37.465H84.895a.89.89,0,0,1-.62-1.529l1.574-1.528V31.783a.891.891,0,0,1,.89-.89H87.75a.892.892,0,0,1,.886.806l2.747-2.668a.886.886,0,0,1,1.241,0l7.109,6.906a.89.89,0,0,1-.62,1.529H97.994V43a.891.891,0,0,1-.89.89Zm-6.412-5.174h2.624a.891.891,0,0,1,.89.89V43a.244.244,0,0,0,.244.244H97.1A.244.244,0,0,0,97.348,43V37.141a.323.323,0,0,1,.323-.323h1.442a.244.244,0,0,0,.17-.419l-7.109-6.905a.243.243,0,0,0-.34,0l-3.291,3.2a.323.323,0,0,1-.549-.232v-.676a.244.244,0,0,0-.244-.244H86.739a.244.244,0,0,0-.244.244v2.761a.323.323,0,0,1-.1.232L84.725,36.4a.244.244,0,0,0,.17.419h1.441a.323.323,0,0,1,.323.323V43a.244.244,0,0,0,.244.244h2.654A.244.244,0,0,0,89.8,43V39.605a.891.891,0,0,1,.89-.89Z" transform="translate(-84.004 -28.777)" />
  </g>
</svg>
