<svg id="Josh_Logo_-_black_text_-_2021" data-name="Josh Logo - black text - 2021" xmlns="http://www.w3.org/2000/svg" width="208.58" height="45.542" viewBox="0 0 208.58 45.542">
  <g id="JOSH_logo" data-name="JOSH logo">
    <g id="Josh-Software-Logo-cc2234ad5ea2747b3b4611978e873127_1_" data-name="Josh-Software-Logo-cc2234ad5ea2747b3b4611978e873127 (1)" transform="translate(0 0)">
      <g id="Group_724" data-name="Group 724" transform="translate(0 19.711)">
        <path id="Path_984" data-name="Path 984" d="M74.582,58.5a2.767,2.767,0,0,0-1.985.83,2.69,2.69,0,0,0-.857,2.013V71.88a8.5,8.5,0,0,1-.326,2.25,6.614,6.614,0,0,1-1.065,2.19,5.613,5.613,0,0,1-2.013,1.659,7.067,7.067,0,0,1-3.227.65H41.24a7.525,7.525,0,0,1-2.339-.354,6.141,6.141,0,0,1-1.895-.977,5.459,5.459,0,0,1-1.274-1.362,2.856,2.856,0,0,1-.474-1.571,2.827,2.827,0,0,0-4.827-2.015,2.7,2.7,0,0,0-.857,2.015,9.053,9.053,0,0,0,.8,3.7,10.727,10.727,0,0,0,2.162,3.2A10.529,10.529,0,0,0,35.7,83.489a9.034,9.034,0,0,0,3.82.83H66.291a9.139,9.139,0,0,0,4.619-1.185,11.9,11.9,0,0,0,3.523-3.05,14.423,14.423,0,0,0,2.992-8.676V61.339A2.832,2.832,0,0,0,74.582,58.5Z" transform="translate(-29.575 -58.49)"/>
        <path id="Path_985" data-name="Path 985" d="M299,70.873a7.976,7.976,0,0,0-2.518-1.688,7.8,7.8,0,0,0-3.109-.621H260.626a2.2,2.2,0,0,1-1.571-.653,2.057,2.057,0,0,1-.683-1.541,2.026,2.026,0,0,1,.683-1.571,2.256,2.256,0,0,1,1.571-.623h36.068a2.843,2.843,0,0,0,0-5.686H260.739a7.6,7.6,0,0,0-3.08.623,7.882,7.882,0,0,0,0,14.51,7.635,7.635,0,0,0,3.08.621h32.873a2.11,2.11,0,0,1,1.541.653,2.179,2.179,0,0,1,.651,1.6,2.01,2.01,0,0,1-.651,1.511,2.16,2.16,0,0,1-1.541.623H257.485a2.843,2.843,0,0,0,0,5.686h35.889a8.13,8.13,0,0,0,3.109-.593A7.558,7.558,0,0,0,299,82.065a8.04,8.04,0,0,0,1.688-2.488,7.6,7.6,0,0,0,.62-3.08,7.814,7.814,0,0,0-.62-3.109A7.979,7.979,0,0,0,299,70.873Z" transform="translate(-144.962 -58.491)"/>
        <path id="Path_986" data-name="Path 986" d="M410.787,59.328a2.843,2.843,0,0,0-4.855,2.013v9.12a14.1,14.1,0,0,0-3.523-1.428,15.069,15.069,0,0,0-3.7-.473H378.154a11.044,11.044,0,0,1-2.309-.267,7.282,7.282,0,0,1-2.34-.948,5.634,5.634,0,0,1-1.836-1.895,5.893,5.893,0,0,1-.74-3.109V61.336a2.843,2.843,0,0,0-5.686,0V81.47a2.843,2.843,0,0,0,5.686,0V72.354a14.021,14.021,0,0,0,3.523,1.428,14.982,14.982,0,0,0,3.7.473H398.7a12.258,12.258,0,0,1,2.25.237,6.89,6.89,0,0,1,2.31.888,5.941,5.941,0,0,1,1.836,1.808,5.547,5.547,0,0,1,.828,2.93V81.48a2.843,2.843,0,1,0,5.686,0V61.346a2.741,2.741,0,0,0-.828-2.018Z" transform="translate(-203.036 -58.493)"/>
        <path id="Path_987" data-name="Path 987" d="M188.346,66.965a14.149,14.149,0,0,0-2.043-4.085,11.89,11.89,0,0,0-3.229-3.05,8.657,8.657,0,0,0-4.322-1.332h-2.924l-4.163,5.686h5.252a6.648,6.648,0,0,1,3.316.74,6.113,6.113,0,0,1,2.043,1.806,6.351,6.351,0,0,1,1,2.34,10.407,10.407,0,0,1,0,4.678,6.353,6.353,0,0,1-1,2.34,6.1,6.1,0,0,1-2.043,1.8,6.645,6.645,0,0,1-3.316.74H152.989a6.613,6.613,0,0,1-3.346-.74,6.177,6.177,0,0,1-2.013-1.8,6.322,6.322,0,0,1-1.007-2.34,10.41,10.41,0,0,1,0-4.678,6.327,6.327,0,0,1,1.007-2.34,6.189,6.189,0,0,1,2.013-1.8,6.613,6.613,0,0,1,3.346-.74h6.536L155.317,58.5h-3.57a8.825,8.825,0,0,0-4.561,1.185,11.778,11.778,0,0,0-3.434,3.05,13.814,13.814,0,0,0-2.162,4.141A14.669,14.669,0,0,0,143.6,79.935a11.83,11.83,0,0,0,3.229,3.05,8.638,8.638,0,0,0,4.322,1.332H178.16a8.814,8.814,0,0,0,4.561-1.185,11.808,11.808,0,0,0,3.436-3.05,13.851,13.851,0,0,0,2.162-4.141,14.228,14.228,0,0,0,.029-8.972Z" transform="translate(-87.077 -58.49)"/>
      </g>
      <g id="Group_723" data-name="Group 723" transform="translate(63.284)">
        <path id="Path_988" data-name="Path 988" d="M184.692,71.587l6.8-9.069H177.889Z" transform="translate(-169.501 -40.857)" fill="#cf4338"/>
        <path id="Path_989" data-name="Path 989" d="M194.449,28.845l7.05,9.5v0l7.033-9.352L201.365,19.5Z" transform="translate(-178.059 -18.628)" fill="#691c00"/>
        <path id="Path_990" data-name="Path 990" d="M185.347,41.7l-6.3,8.384h12.592Z" transform="translate(-170.102 -30.096)" fill="#9a281e"/>
        <path id="Path_991" data-name="Path 991" d="M167.582,37.417,182.388,17.7h-14.5l-7.361,10.477Z" transform="translate(-160.532 -17.7)" fill="#cf4338"/>
      </g>
    </g>
  </g>
</svg>
