<svg id="noun-menu-1166847" xmlns="http://www.w3.org/2000/svg" width="9.645" height="15.354" viewBox="0 0 9.645 15.354">
  <path id="Path_359674" data-name="Path 359674" d="M152.139,74.944H146.1c-.276,0-.5-.355-.5-.793s.224-.793.5-.793h6.04c.276,0,.5.355.5.793s-.224.793-.5.793Z" transform="translate(-145.599 -73.358)"/>
  <path id="Path_359675" data-name="Path 359675" d="M154.744,259.744H146.1c-.276,0-.5-.355-.5-.793s.224-.793.5-.793h8.645c.276,0,.5.355.5.793S155.02,259.744,154.744,259.744Z" transform="translate(-145.599 -251.274)"/>
  <path id="Path_359676" data-name="Path 359676" d="M152.139,444.544H146.1c-.276,0-.5-.355-.5-.793s.224-.793.5-.793h6.04c.276,0,.5.355.5.793s-.224.793-.5.793Z" transform="translate(-145.599 -429.189)"/>
</svg>
