<svg xmlns="http://www.w3.org/2000/svg" width="18.15" height="18.227" viewBox="0 0 18.15 18.227">
  <g id="noun-profile-963314" transform="translate(0 0)">
    <path id="Path_359678" data-name="Path 359678" d="M251.359,85.022a4.6,4.6,0,1,0-4.609-4.583A4.617,4.617,0,0,0,251.359,85.022Zm0-8.15a3.567,3.567,0,1,1-3.567,3.567,3.573,3.573,0,0,1,3.567-3.567Z" transform="translate(-242.271 -75.83)"/>
    <path id="Path_359679" data-name="Path 359679" d="M159.514,287.58a.53.53,0,0,0-.391.156,5.221,5.221,0,0,1-7.239,0,.574.574,0,0,0-.391-.156,5.5,5.5,0,0,0-5.078,5.468v.7a2.612,2.612,0,0,0,2.6,2.6h12.942a2.612,2.612,0,0,0,2.6-2.6v-.7A5.462,5.462,0,0,0,159.514,287.58Zm4.036,6.171a1.567,1.567,0,0,1-1.562,1.562H149.02a1.567,1.567,0,0,1-1.562-1.562v-.7a4.462,4.462,0,0,1,3.88-4.4,6.119,6.119,0,0,0,4.166,1.588,6.244,6.244,0,0,0,4.166-1.588,4.443,4.443,0,0,1,3.88,4.4Z" transform="translate(-146.416 -278.128)"/>
  </g>
</svg>
