<svg xmlns="http://www.w3.org/2000/svg" xmlns:xlink="http://www.w3.org/1999/xlink" version="1.1">
<path d="M44.229,69.436H25.201c-2.022,0-3.668-1.646-3.668-3.668V20.103c0-2.022,1.646-3.668,3.668-3.668h34.856  c2.022,0,3.668,1.646,3.668,3.668V49.67c0,0.552,0.447,1,1,1s1-0.448,1-1V20.103c0-3.125-2.543-5.668-5.668-5.668H25.201  c-3.125,0-5.668,2.542-5.668,5.668v45.665c0,3.125,2.542,5.668,5.668,5.668h19.028c0.552,0,1-0.447,1-1S44.782,69.436,44.229,69.436  z M55.755,23.935h-26.25c-0.552,0-1,0.448-1,1s0.448,1,1,1h26.25c0.553,0,1-0.448,1-1S56.308,23.935,55.755,23.935z M55.755,32.935  h-26.25c-0.552,0-1,0.448-1,1s0.448,1,1,1h26.25c0.553,0,1-0.448,1-1S56.308,32.935,55.755,32.935z M55.755,41.935h-26.25  c-0.552,0-1,0.448-1,1s0.448,1,1,1h26.25c0.553,0,1-0.448,1-1S56.308,41.935,55.755,41.935z M55.755,50.936h-26.25  c-0.552,0-1,0.447-1,1s0.448,1,1,1h26.25c0.553,0,1-0.447,1-1S56.308,50.936,55.755,50.936z M48.968,60.936c0-0.553-0.448-1-1-1  H29.505c-0.552,0-1,0.447-1,1s0.448,1,1,1h18.463C48.52,61.936,48.968,61.488,48.968,60.936z M64.726,53.936  c-9.098,0-16.5,7.402-16.5,16.5s7.402,16.5,16.5,16.5s16.5-7.402,16.5-16.5S73.823,53.936,64.726,53.936z M64.726,84.936  c-7.995,0-14.5-6.505-14.5-14.5s6.505-14.5,14.5-14.5s14.5,6.505,14.5,14.5S72.721,84.936,64.726,84.936z M65.726,69.938v-9.503  c0-0.553-0.447-1-1-1s-1,0.447-1,1v10c0,0.313,0.146,0.608,0.396,0.797l7.921,6c0.181,0.137,0.393,0.203,0.603,0.203  c0.303,0,0.602-0.137,0.798-0.396c0.334-0.44,0.247-1.067-0.193-1.4L65.726,69.938z"/>
</svg>